# xmcd
# 
# Track frame offsets:
#     150
#     30310
#     53362
#     87035
#     110082
#     149885
#     167780
#     204730
#     224730
#     245632
# 
# Disc length: 3637
# 
# Revision: 1
# Processed by: cddbd v1.5.2PL0 Copyright (c) Steve Scherf et al.
# Submitted via: fre:ac v1.0.31
# 
DISCID=950e330a
DTITLE=Jazziz - Jazziz May 1995
DYEAR=1995
DGENRE=Jazz
TTITLE0=01 - John Pizzarelli - Route 66
TTITLE1=02 - Spyro Gyra - Lost and Found
TTITLE2=03 - BillEvans - London House
TTITLE3=04 - Straight Ahead - Daddy's Song
TTITLE4=05 - John Lovano and Gunther Schuller - Rush Hour on 23rd Street
TTITLE5=06 - Dori Caymmi - Irresistable (Jogo de Cintura)
TTITLE6=07 - Joe Farrel -Mode for Joe
TTITLE7=08 - Rabih Abou-Khalil Dog River
TTITLE8=09 - Boy Katindig - Puerto Pricessa
TTITLE9=10 - Gary Wright - Kani Fe
EXTD=YEAR: 1995
EXTT0=
EXTT1=
EXTT2=
EXTT3=
EXTT4=
EXTT5=
EXTT6=
EXTT7=
EXTT8=
EXTT9=
PLAYORDER=
